<?xml version="1.0" standalone="no"?>
<!DOCTYPE svg PUBLIC "-//W3C//DTD SVG 20010904//EN"
 "http://www.w3.org/TR/2001/REC-SVG-20010904/DTD/svg10.dtd">
<svg version="1.0" xmlns="http://www.w3.org/2000/svg"
 width="1920.000000pt" height="1080.000000pt" viewBox="0 0 1920.000000 1080.000000"
 preserveAspectRatio="xMidYMid meet">

<g transform="translate(0.000000,1080.000000) scale(0.100000,-0.100000)"
fill="#000000" stroke="none">
<path d="M5662 6658 c1 -662 3 -1151 5 -1088 4 218 24 661 30 676 4 10 22 14
64 14 l59 0 0 -1130 0 -1130 -59 0 c-53 0 -59 2 -64 23 -7 26 -27 418 -30 597
-2 69 -4 -283 -5 -782 l-2 -908 443 0 c244 0 579 3 744 7 l301 6 6 101 c7 119
17 1288 11 1266 -2 -8 -9 -71 -15 -140 -14 -170 -14 -170 -61 -170 l-39 0 0
407 c0 223 3 403 6 400 4 -4 125 -186 270 -404 l262 -398 -49 -3 c-27 -2 -49
-6 -49 -10 0 -4 139 -230 309 -502 l307 -495 1169 4 c643 2 1205 7 1249 10
l80 6 218 485 c119 267 217 488 218 493 0 4 -31 7 -70 7 -38 0 -70 2 -70 4 0
6 766 1691 916 2016 l109 235 71 3 71 3 198 432 c109 238 205 449 214 470 15
34 57 64 449 318 239 154 438 279 444 277 6 -2 -185 -131 -424 -286 -240 -155
-440 -288 -445 -295 -18 -22 -411 -901 -422 -942 -6 -22 -49 -132 -95 -245
-47 -112 -84 -206 -82 -207 2 -2 145 308 318 689 l315 693 487 315 486 315
-517 6 c-285 3 -818 7 -1184 8 l-666 1 -26 -57 c-119 -265 -886 -2037 -884
-2040 2 -2 19 29 37 69 87 192 218 454 232 466 11 8 38 12 77 10 l60 -3 -94
-224 c-249 -589 -329 -771 -336 -764 -8 8 -401 931 -413 971 -7 21 -5 22 61
22 67 0 69 -1 88 -32 25 -41 77 -157 162 -358 36 -85 70 -159 75 -165 12 -12
45 -98 -306 793 -163 414 -296 756 -296 760 0 4 183 126 405 272 l405 265
-1118 7 c-614 4 -1217 7 -1340 5 l-222 -2 76 -156 76 -156 -321 -499 c-176
-273 -322 -502 -324 -508 -13 -35 -13 44 -2 444 8 245 17 554 20 688 l7 242
-791 0 -791 0 2 -1202z m2182 992 c31 -66 56 -128 56 -138 0 -9 -29 43 -65
117 -70 143 -69 141 -56 141 4 0 33 -54 65 -120z m2080 -120 c-405 -267 -384
-254 -384 -240 0 17 693 470 718 470 8 0 -143 -104 -334 -230z m-2785 -1387
c-40 -65 -76 -122 -80 -127 -5 -6 -9 45 -9 117 l0 127 80 0 80 0 -71 -117z
m1595 -191 c158 -348 697 -1545 804 -1787 l72 -160 -50 -3 c-46 -3 -49 -4 -41
-25 5 -12 93 -208 195 -436 103 -228 185 -421 184 -429 -2 -8 -90 178 -197
414 -106 236 -214 467 -240 514 -25 47 -73 138 -106 202 -33 64 -61 116 -62
114 -1 -1 125 -285 281 -632 l284 -629 -46 -3 c-34 -2 -49 1 -62 15 -9 10
-241 365 -515 788 -448 693 -566 872 -495 750 13 -22 31 -51 41 -65 9 -14 73
-118 143 -232 174 -287 205 -348 173 -348 -6 0 -102 134 -212 298 -110 163
-329 489 -486 723 l-287 426 214 339 c118 187 214 344 214 350 0 6 -11 37 -25
68 l-25 56 53 0 52 0 139 -308z m-1934 -2983 c-179 -3 -500 -6 -715 -5 l-390
1 335 5 c184 3 506 6 715 6 l380 0 -325 -7z"/>
<path d="M8497 5878 c-59 -94 -79 -128 -74 -128 3 0 22 28 44 63 22 34 47 74
57 90 10 15 16 27 12 27 -3 0 -20 -24 -39 -52z"/>
<path d="M8581 5925 c0 -5 8 -26 19 -45 11 -19 19 -30 19 -25 0 6 -8 26 -19
45 -11 19 -19 31 -19 25z"/>
<path d="M8620 5835 c0 -5 5 -17 10 -25 5 -8 10 -10 10 -5 0 6 -5 17 -10 25
-5 8 -10 11 -10 5z"/>
<path d="M9250 4445 c0 -5 5 -17 10 -25 5 -8 10 -10 10 -5 0 6 -5 17 -10 25
-5 8 -10 11 -10 5z"/>
<path d="M9276 4387 c3 -10 9 -15 12 -12 3 3 0 11 -7 18 -10 9 -11 8 -5 -6z"/>
<path d="M11882 5745 c-17 -37 -14 -45 4 -12 9 16 14 31 11 33 -2 2 -9 -7 -15
-21z"/>
<path d="M11300 4459 c-7 -11 -10 -23 -7 -25 2 -2 9 7 15 21 14 30 7 33 -8 4z"/>
<path d="M11200 4248 c-41 -82 -91 -177 -111 -210 -20 -32 -134 -276 -254
-541 -120 -265 -223 -487 -229 -493 -8 -9 -341 -14 -1261 -19 l-1250 -7 -324
516 c-177 284 -329 522 -335 529 -7 7 -57 76 -110 155 -54 78 -100 142 -102
142 -3 0 -2 -6 2 -12 30 -51 820 -1318 834 -1337 l17 -24 279 1 c153 1 729 5
1280 8 l1001 7 321 715 c177 394 321 717 319 718 -2 2 -36 -65 -77 -148z"/>
</g>
</svg>
